solid VR - Fully printed - part 3b - VR - Fully printed - part 3b (repaired)
 facet normal 0.000000 0.000000 1.000000
  outer loop
   vertex 0.000000 2.200000 1.750000
   vertex 14.250000 2.200000 1.750000
   vertex 0.000000 7.300000 1.750000
  endloop
 endfacet
 facet normal 0.000000 0.000000 1.000000
  outer loop
   vertex 0.000000 7.300000 1.750000
   vertex 14.250000 2.200000 1.750000
   vertex 14.250000 7.300000 1.750000
  endloop
 endfacet
 facet normal -1.000000 0.000000 0.000000
  outer loop
   vertex 0.000000 7.300000 10.750000
   vertex 0.000000 9.500000 10.750000
   vertex 0.000000 7.300000 1.750000
  endloop
 endfacet
 facet normal -1.000000 0.000000 0.000000
  outer loop
   vertex 0.000000 7.300000 1.750000
   vertex 0.000000 9.500000 10.750000
   vertex 0.000000 9.500000 0.000000
  endloop
 endfacet
 facet normal -1.000000 0.000000 0.000000
  outer loop
   vertex 0.000000 7.300000 1.750000
   vertex 0.000000 9.500000 0.000000
   vertex 0.000000 2.200000 1.750000
  endloop
 endfacet
 facet normal -1.000000 0.000000 0.000000
  outer loop
   vertex 0.000000 2.200000 1.750000
   vertex 0.000000 9.500000 0.000000
   vertex 0.000000 0.000000 0.000000
  endloop
 endfacet
 facet normal -1.000000 0.000000 0.000000
  outer loop
   vertex 0.000000 2.200000 1.750000
   vertex 0.000000 0.000000 0.000000
   vertex 0.000000 2.200000 10.750000
  endloop
 endfacet
 facet normal -1.000000 0.000000 0.000000
  outer loop
   vertex 0.000000 2.200000 10.750000
   vertex 0.000000 0.000000 0.000000
   vertex 0.000000 0.000000 10.750000
  endloop
 endfacet
 facet normal 0.000000 -1.000000 0.000000
  outer loop
   vertex 0.000000 0.000000 10.750000
   vertex 0.000000 0.000000 0.000000
   vertex 14.250000 0.000000 0.000000
  endloop
 endfacet
 facet normal 0.000000 -1.000000 0.000000
  outer loop
   vertex 12.597300 0.000000 12.719610
   vertex 12.250000 0.000000 12.750000
   vertex 14.250000 0.000000 10.750000
  endloop
 endfacet
 facet normal 0.000000 -1.000000 0.000000
  outer loop
   vertex 12.597300 0.000000 12.719610
   vertex 14.250000 0.000000 10.750000
   vertex 12.934040 0.000000 12.629380
  endloop
 endfacet
 facet normal 0.000000 -1.000000 0.000000
  outer loop
   vertex 12.934040 0.000000 12.629380
   vertex 14.250000 0.000000 10.750000
   vertex 13.250000 0.000000 12.482050
  endloop
 endfacet
 facet normal 0.000000 -1.000000 0.000000
  outer loop
   vertex 13.250000 0.000000 12.482050
   vertex 14.250000 0.000000 10.750000
   vertex 14.219620 0.000000 11.097300
  endloop
 endfacet
 facet normal 0.000000 -1.000000 0.000000
  outer loop
   vertex 13.250000 0.000000 12.482050
   vertex 14.219620 0.000000 11.097300
   vertex 14.129380 0.000000 11.434040
  endloop
 endfacet
 facet normal 0.000000 -1.000000 0.000000
  outer loop
   vertex 14.129380 0.000000 11.434040
   vertex 13.982050 0.000000 11.750000
   vertex 13.250000 0.000000 12.482050
  endloop
 endfacet
 facet normal 0.000000 -1.000000 0.000000
  outer loop
   vertex 13.250000 0.000000 12.482050
   vertex 13.982050 0.000000 11.750000
   vertex 13.782090 0.000000 12.035570
  endloop
 endfacet
 facet normal 0.000000 -1.000000 0.000000
  outer loop
   vertex 13.250000 0.000000 12.482050
   vertex 13.782090 0.000000 12.035570
   vertex 13.535570 0.000000 12.282090
  endloop
 endfacet
 facet normal 0.000000 -1.000000 0.000000
  outer loop
   vertex 0.714425 0.000000 12.282090
   vertex 2.000000 0.000000 12.750000
   vertex 1.000000 0.000000 12.482050
  endloop
 endfacet
 facet normal 0.000000 -1.000000 0.000000
  outer loop
   vertex 1.000000 0.000000 12.482050
   vertex 2.000000 0.000000 12.750000
   vertex 1.652704 0.000000 12.719610
  endloop
 endfacet
 facet normal 0.000000 -1.000000 0.000000
  outer loop
   vertex 1.000000 0.000000 12.482050
   vertex 1.652704 0.000000 12.719610
   vertex 1.315960 0.000000 12.629380
  endloop
 endfacet
 facet normal 0.000000 -1.000000 0.000000
  outer loop
   vertex 0.714425 0.000000 12.282090
   vertex 0.467911 0.000000 12.035570
   vertex 2.000000 0.000000 12.750000
  endloop
 endfacet
 facet normal 0.000000 -1.000000 0.000000
  outer loop
   vertex 2.000000 0.000000 12.750000
   vertex 0.467911 0.000000 12.035570
   vertex 0.267949 0.000000 11.750000
  endloop
 endfacet
 facet normal 0.000000 -1.000000 0.000000
  outer loop
   vertex 2.000000 0.000000 12.750000
   vertex 0.267949 0.000000 11.750000
   vertex 0.120615 0.000000 11.434040
  endloop
 endfacet
 facet normal 0.000000 -1.000000 0.000000
  outer loop
   vertex 0.120615 0.000000 11.434040
   vertex 0.030384 0.000000 11.097300
   vertex 2.000000 0.000000 12.750000
  endloop
 endfacet
 facet normal 0.000000 -1.000000 0.000000
  outer loop
   vertex 2.000000 0.000000 12.750000
   vertex 0.030384 0.000000 11.097300
   vertex 0.000000 0.000000 10.750000
  endloop
 endfacet
 facet normal 0.000000 -1.000000 0.000000
  outer loop
   vertex 2.000000 0.000000 12.750000
   vertex 0.000000 0.000000 10.750000
   vertex 12.250000 0.000000 12.750000
  endloop
 endfacet
 facet normal 0.000000 -1.000000 0.000000
  outer loop
   vertex 12.250000 0.000000 12.750000
   vertex 0.000000 0.000000 10.750000
   vertex 14.250000 0.000000 0.000000
  endloop
 endfacet
 facet normal 0.000000 -1.000000 0.000000
  outer loop
   vertex 12.250000 0.000000 12.750000
   vertex 14.250000 0.000000 0.000000
   vertex 14.250000 0.000000 10.750000
  endloop
 endfacet
 facet normal 1.000000 0.000000 0.000000
  outer loop
   vertex 14.250000 2.200000 10.750000
   vertex 14.250000 0.000000 10.750000
   vertex 14.250000 2.200000 1.750000
  endloop
 endfacet
 facet normal 1.000000 0.000000 0.000000
  outer loop
   vertex 14.250000 2.200000 1.750000
   vertex 14.250000 0.000000 10.750000
   vertex 14.250000 0.000000 0.000000
  endloop
 endfacet
 facet normal 1.000000 0.000000 0.000000
  outer loop
   vertex 14.250000 2.200000 1.750000
   vertex 14.250000 0.000000 0.000000
   vertex 14.250000 7.300000 1.750000
  endloop
 endfacet
 facet normal 1.000000 0.000000 0.000000
  outer loop
   vertex 14.250000 7.300000 1.750000
   vertex 14.250000 0.000000 0.000000
   vertex 14.250000 9.500000 0.000000
  endloop
 endfacet
 facet normal 1.000000 0.000000 0.000000
  outer loop
   vertex 14.250000 7.300000 1.750000
   vertex 14.250000 9.500000 0.000000
   vertex 14.250000 7.300000 10.750000
  endloop
 endfacet
 facet normal 1.000000 0.000000 0.000000
  outer loop
   vertex 14.250000 7.300000 10.750000
   vertex 14.250000 9.500000 0.000000
   vertex 14.250000 9.500000 10.750000
  endloop
 endfacet
 facet normal 0.000000 1.000000 0.000000
  outer loop
   vertex 14.250000 9.500000 0.000000
   vertex 0.000000 9.500000 0.000000
   vertex 14.250000 9.500000 10.750000
  endloop
 endfacet
 facet normal 0.000000 1.000000 0.000000
  outer loop
   vertex 14.250000 9.500000 10.750000
   vertex 0.000000 9.500000 0.000000
   vertex 0.000000 9.500000 10.750000
  endloop
 endfacet
 facet normal 0.000000 1.000000 0.000000
  outer loop
   vertex 13.782090 9.500000 12.035570
   vertex 13.982050 9.500000 11.750000
   vertex 12.250000 9.500000 12.750000
  endloop
 endfacet
 facet normal 0.000000 1.000000 0.000000
  outer loop
   vertex 12.597300 9.500000 12.719610
   vertex 12.934040 9.500000 12.629380
   vertex 13.250000 9.500000 12.482050
  endloop
 endfacet
 facet normal 0.000000 1.000000 0.000000
  outer loop
   vertex 12.250000 9.500000 12.750000
   vertex 14.250000 9.500000 10.750000
   vertex 2.000000 9.500000 12.750000
  endloop
 endfacet
 facet normal 0.000000 1.000000 0.000000
  outer loop
   vertex 2.000000 9.500000 12.750000
   vertex 14.250000 9.500000 10.750000
   vertex 0.000000 9.500000 10.750000
  endloop
 endfacet
 facet normal 0.000000 1.000000 0.000000
  outer loop
   vertex 2.000000 9.500000 12.750000
   vertex 0.000000 9.500000 10.750000
   vertex 1.652704 9.500000 12.719610
  endloop
 endfacet
 facet normal 0.000000 1.000000 0.000000
  outer loop
   vertex 1.652704 9.500000 12.719610
   vertex 0.000000 9.500000 10.750000
   vertex 1.315960 9.500000 12.629380
  endloop
 endfacet
 facet normal 0.000000 1.000000 0.000000
  outer loop
   vertex 13.982050 9.500000 11.750000
   vertex 14.129380 9.500000 11.434040
   vertex 12.250000 9.500000 12.750000
  endloop
 endfacet
 facet normal 0.000000 1.000000 0.000000
  outer loop
   vertex 12.250000 9.500000 12.750000
   vertex 14.129380 9.500000 11.434040
   vertex 14.219620 9.500000 11.097300
  endloop
 endfacet
 facet normal 0.000000 1.000000 0.000000
  outer loop
   vertex 12.250000 9.500000 12.750000
   vertex 14.219620 9.500000 11.097300
   vertex 14.250000 9.500000 10.750000
  endloop
 endfacet
 facet normal 0.000000 1.000000 0.000000
  outer loop
   vertex 12.597300 9.500000 12.719610
   vertex 13.250000 9.500000 12.482050
   vertex 12.250000 9.500000 12.750000
  endloop
 endfacet
 facet normal 0.000000 1.000000 0.000000
  outer loop
   vertex 12.250000 9.500000 12.750000
   vertex 13.250000 9.500000 12.482050
   vertex 13.535570 9.500000 12.282090
  endloop
 endfacet
 facet normal 0.000000 1.000000 0.000000
  outer loop
   vertex 12.250000 9.500000 12.750000
   vertex 13.535570 9.500000 12.282090
   vertex 13.782090 9.500000 12.035570
  endloop
 endfacet
 facet normal 0.000000 1.000000 0.000000
  outer loop
   vertex 0.030384 9.500000 11.097300
   vertex 0.714425 9.500000 12.282090
   vertex 0.000000 9.500000 10.750000
  endloop
 endfacet
 facet normal 0.000000 1.000000 0.000000
  outer loop
   vertex 0.000000 9.500000 10.750000
   vertex 0.714425 9.500000 12.282090
   vertex 1.000000 9.500000 12.482050
  endloop
 endfacet
 facet normal 0.000000 1.000000 0.000000
  outer loop
   vertex 0.000000 9.500000 10.750000
   vertex 1.000000 9.500000 12.482050
   vertex 1.315960 9.500000 12.629380
  endloop
 endfacet
 facet normal 0.000000 1.000000 0.000000
  outer loop
   vertex 0.030384 9.500000 11.097300
   vertex 0.120615 9.500000 11.434040
   vertex 0.714425 9.500000 12.282090
  endloop
 endfacet
 facet normal 0.000000 1.000000 0.000000
  outer loop
   vertex 0.714425 9.500000 12.282090
   vertex 0.120615 9.500000 11.434040
   vertex 0.267949 9.500000 11.750000
  endloop
 endfacet
 facet normal 0.000000 1.000000 0.000000
  outer loop
   vertex 0.714425 9.500000 12.282090
   vertex 0.267949 9.500000 11.750000
   vertex 0.467911 9.500000 12.035570
  endloop
 endfacet
 facet normal 0.000000 0.000000 -1.000000
  outer loop
   vertex 14.250000 9.500000 0.000000
   vertex 14.250000 0.000000 0.000000
   vertex 0.000000 9.500000 0.000000
  endloop
 endfacet
 facet normal 0.000000 0.000000 -1.000000
  outer loop
   vertex 0.000000 9.500000 0.000000
   vertex 14.250000 0.000000 0.000000
   vertex 0.000000 0.000000 0.000000
  endloop
 endfacet
 facet normal 0.000000 1.000000 0.000000
  outer loop
   vertex 14.250000 2.200000 1.750000
   vertex 0.000000 2.200000 1.750000
   vertex 14.250000 2.200000 10.750000
  endloop
 endfacet
 facet normal 0.000000 1.000000 0.000000
  outer loop
   vertex 14.250000 2.200000 10.750000
   vertex 0.000000 2.200000 1.750000
   vertex 0.000000 2.200000 10.750000
  endloop
 endfacet
 facet normal 0.000000 1.000000 0.000000
  outer loop
   vertex 0.000000 2.200000 10.750000
   vertex 0.030384 2.200000 11.097300
   vertex 2.000000 2.200000 12.750000
  endloop
 endfacet
 facet normal 0.000000 1.000000 0.000000
  outer loop
   vertex 2.000000 2.200000 12.750000
   vertex 0.030384 2.200000 11.097300
   vertex 0.120615 2.200000 11.434040
  endloop
 endfacet
 facet normal 0.000000 1.000000 0.000000
  outer loop
   vertex 1.315960 2.200000 12.629380
   vertex 1.652704 2.200000 12.719610
   vertex 1.000000 2.200000 12.482050
  endloop
 endfacet
 facet normal 0.000000 1.000000 0.000000
  outer loop
   vertex 1.000000 2.200000 12.482050
   vertex 1.652704 2.200000 12.719610
   vertex 2.000000 2.200000 12.750000
  endloop
 endfacet
 facet normal 0.000000 1.000000 0.000000
  outer loop
   vertex 1.000000 2.200000 12.482050
   vertex 2.000000 2.200000 12.750000
   vertex 0.714425 2.200000 12.282090
  endloop
 endfacet
 facet normal 0.000000 1.000000 0.000000
  outer loop
   vertex 0.000000 2.200000 10.750000
   vertex 2.000000 2.200000 12.750000
   vertex 14.250000 2.200000 10.750000
  endloop
 endfacet
 facet normal 0.000000 1.000000 0.000000
  outer loop
   vertex 14.250000 2.200000 10.750000
   vertex 2.000000 2.200000 12.750000
   vertex 12.250000 2.200000 12.750000
  endloop
 endfacet
 facet normal 0.000000 1.000000 0.000000
  outer loop
   vertex 14.250000 2.200000 10.750000
   vertex 12.250000 2.200000 12.750000
   vertex 12.597300 2.200000 12.719610
  endloop
 endfacet
 facet normal 0.000000 1.000000 0.000000
  outer loop
   vertex 0.120615 2.200000 11.434040
   vertex 0.267949 2.200000 11.750000
   vertex 2.000000 2.200000 12.750000
  endloop
 endfacet
 facet normal 0.000000 1.000000 0.000000
  outer loop
   vertex 2.000000 2.200000 12.750000
   vertex 0.267949 2.200000 11.750000
   vertex 0.467911 2.200000 12.035570
  endloop
 endfacet
 facet normal 0.000000 1.000000 0.000000
  outer loop
   vertex 2.000000 2.200000 12.750000
   vertex 0.467911 2.200000 12.035570
   vertex 0.714425 2.200000 12.282090
  endloop
 endfacet
 facet normal 0.000000 1.000000 0.000000
  outer loop
   vertex 12.597300 2.200000 12.719610
   vertex 12.934040 2.200000 12.629380
   vertex 14.250000 2.200000 10.750000
  endloop
 endfacet
 facet normal 0.000000 1.000000 0.000000
  outer loop
   vertex 14.250000 2.200000 10.750000
   vertex 12.934040 2.200000 12.629380
   vertex 13.250000 2.200000 12.482050
  endloop
 endfacet
 facet normal 0.000000 1.000000 0.000000
  outer loop
   vertex 14.250000 2.200000 10.750000
   vertex 13.250000 2.200000 12.482050
   vertex 14.219620 2.200000 11.097300
  endloop
 endfacet
 facet normal 0.000000 1.000000 0.000000
  outer loop
   vertex 14.219620 2.200000 11.097300
   vertex 13.250000 2.200000 12.482050
   vertex 13.535570 2.200000 12.282090
  endloop
 endfacet
 facet normal 0.000000 1.000000 0.000000
  outer loop
   vertex 13.535570 2.200000 12.282090
   vertex 13.782090 2.200000 12.035570
   vertex 14.219620 2.200000 11.097300
  endloop
 endfacet
 facet normal 0.000000 1.000000 0.000000
  outer loop
   vertex 14.219620 2.200000 11.097300
   vertex 13.782090 2.200000 12.035570
   vertex 13.982050 2.200000 11.750000
  endloop
 endfacet
 facet normal 0.000000 1.000000 0.000000
  outer loop
   vertex 14.219620 2.200000 11.097300
   vertex 13.982050 2.200000 11.750000
   vertex 14.129380 2.200000 11.434040
  endloop
 endfacet
 facet normal 0.000000 0.000000 1.000000
  outer loop
   vertex 12.250000 2.200000 12.750000
   vertex 2.000000 2.200000 12.750000
   vertex 12.250000 0.000000 12.750000
  endloop
 endfacet
 facet normal 0.000000 0.000000 1.000000
  outer loop
   vertex 12.250000 0.000000 12.750000
   vertex 2.000000 2.200000 12.750000
   vertex 2.000000 0.000000 12.750000
  endloop
 endfacet
 facet normal 0.000000 -1.000000 0.000000
  outer loop
   vertex 0.000000 7.300000 1.750000
   vertex 14.250000 7.300000 1.750000
   vertex 0.000000 7.300000 10.750000
  endloop
 endfacet
 facet normal 0.000000 -1.000000 0.000000
  outer loop
   vertex 0.000000 7.300000 10.750000
   vertex 14.250000 7.300000 1.750000
   vertex 14.250000 7.300000 10.750000
  endloop
 endfacet
 facet normal 0.000000 -1.000000 0.000000
  outer loop
   vertex 12.250000 7.300000 12.750000
   vertex 14.250000 7.300000 10.750000
   vertex 14.219620 7.300000 11.097300
  endloop
 endfacet
 facet normal 0.000000 -1.000000 0.000000
  outer loop
   vertex 1.652704 7.300000 12.719610
   vertex 1.315960 7.300000 12.629380
   vertex 0.000000 7.300000 10.750000
  endloop
 endfacet
 facet normal 0.000000 -1.000000 0.000000
  outer loop
   vertex 14.250000 7.300000 10.750000
   vertex 12.250000 7.300000 12.750000
   vertex 0.000000 7.300000 10.750000
  endloop
 endfacet
 facet normal 0.000000 -1.000000 0.000000
  outer loop
   vertex 0.000000 7.300000 10.750000
   vertex 12.250000 7.300000 12.750000
   vertex 2.000000 7.300000 12.750000
  endloop
 endfacet
 facet normal 0.000000 -1.000000 0.000000
  outer loop
   vertex 0.000000 7.300000 10.750000
   vertex 2.000000 7.300000 12.750000
   vertex 1.652704 7.300000 12.719610
  endloop
 endfacet
 facet normal 0.000000 -1.000000 0.000000
  outer loop
   vertex 14.219620 7.300000 11.097300
   vertex 14.129380 7.300000 11.434040
   vertex 12.250000 7.300000 12.750000
  endloop
 endfacet
 facet normal 0.000000 -1.000000 0.000000
  outer loop
   vertex 12.250000 7.300000 12.750000
   vertex 14.129380 7.300000 11.434040
   vertex 13.982050 7.300000 11.750000
  endloop
 endfacet
 facet normal 0.000000 -1.000000 0.000000
  outer loop
   vertex 12.250000 7.300000 12.750000
   vertex 13.982050 7.300000 11.750000
   vertex 12.597300 7.300000 12.719610
  endloop
 endfacet
 facet normal 0.000000 -1.000000 0.000000
  outer loop
   vertex 12.597300 7.300000 12.719610
   vertex 13.982050 7.300000 11.750000
   vertex 13.782090 7.300000 12.035570
  endloop
 endfacet
 facet normal 0.000000 -1.000000 0.000000
  outer loop
   vertex 13.782090 7.300000 12.035570
   vertex 13.535570 7.300000 12.282090
   vertex 12.597300 7.300000 12.719610
  endloop
 endfacet
 facet normal 0.000000 -1.000000 0.000000
  outer loop
   vertex 12.597300 7.300000 12.719610
   vertex 13.535570 7.300000 12.282090
   vertex 13.250000 7.300000 12.482050
  endloop
 endfacet
 facet normal 0.000000 -1.000000 0.000000
  outer loop
   vertex 12.597300 7.300000 12.719610
   vertex 13.250000 7.300000 12.482050
   vertex 12.934040 7.300000 12.629380
  endloop
 endfacet
 facet normal 0.000000 -1.000000 0.000000
  outer loop
   vertex 0.120615 7.300000 11.434040
   vertex 0.714425 7.300000 12.282090
   vertex 0.267949 7.300000 11.750000
  endloop
 endfacet
 facet normal 0.000000 -1.000000 0.000000
  outer loop
   vertex 0.267949 7.300000 11.750000
   vertex 0.714425 7.300000 12.282090
   vertex 0.467911 7.300000 12.035570
  endloop
 endfacet
 facet normal 0.000000 -1.000000 0.000000
  outer loop
   vertex 1.315960 7.300000 12.629380
   vertex 1.000000 7.300000 12.482050
   vertex 0.000000 7.300000 10.750000
  endloop
 endfacet
 facet normal 0.000000 -1.000000 0.000000
  outer loop
   vertex 0.000000 7.300000 10.750000
   vertex 1.000000 7.300000 12.482050
   vertex 0.714425 7.300000 12.282090
  endloop
 endfacet
 facet normal 0.000000 -1.000000 0.000000
  outer loop
   vertex 0.000000 7.300000 10.750000
   vertex 0.714425 7.300000 12.282090
   vertex 0.030384 7.300000 11.097300
  endloop
 endfacet
 facet normal 0.000000 -1.000000 0.000000
  outer loop
   vertex 0.030384 7.300000 11.097300
   vertex 0.714425 7.300000 12.282090
   vertex 0.120615 7.300000 11.434040
  endloop
 endfacet
 facet normal 0.000000 0.000000 1.000000
  outer loop
   vertex 2.000000 7.300000 12.750000
   vertex 12.250000 7.300000 12.750000
   vertex 2.000000 9.500000 12.750000
  endloop
 endfacet
 facet normal 0.000000 0.000000 1.000000
  outer loop
   vertex 2.000000 9.500000 12.750000
   vertex 12.250000 7.300000 12.750000
   vertex 12.250000 9.500000 12.750000
  endloop
 endfacet
 facet normal 0.996196 0.000000 0.087143
  outer loop
   vertex 14.250000 0.000000 10.750000
   vertex 14.250000 2.200000 10.750000
   vertex 14.219620 2.200000 11.097300
  endloop
 endfacet
 facet normal 0.996196 0.000000 0.087143
  outer loop
   vertex 14.250000 0.000000 10.750000
   vertex 14.219620 2.200000 11.097300
   vertex 14.219620 0.000000 11.097300
  endloop
 endfacet
 facet normal 0.965919 0.000000 0.258846
  outer loop
   vertex 14.219620 0.000000 11.097300
   vertex 14.219620 2.200000 11.097300
   vertex 14.129380 2.200000 11.434040
  endloop
 endfacet
 facet normal 0.965919 0.000000 0.258846
  outer loop
   vertex 14.219620 0.000000 11.097300
   vertex 14.129380 2.200000 11.434040
   vertex 14.129380 0.000000 11.434040
  endloop
 endfacet
 facet normal 0.906312 0.000000 0.422608
  outer loop
   vertex 14.129380 0.000000 11.434040
   vertex 14.129380 2.200000 11.434040
   vertex 13.982050 2.200000 11.750000
  endloop
 endfacet
 facet normal 0.906312 0.000000 0.422608
  outer loop
   vertex 14.129380 0.000000 11.434040
   vertex 13.982050 2.200000 11.750000
   vertex 13.982050 0.000000 11.750000
  endloop
 endfacet
 facet normal 0.819150 0.000000 0.573579
  outer loop
   vertex 13.982050 0.000000 11.750000
   vertex 13.982050 2.200000 11.750000
   vertex 13.782090 2.200000 12.035570
  endloop
 endfacet
 facet normal 0.819150 0.000000 0.573579
  outer loop
   vertex 13.982050 0.000000 11.750000
   vertex 13.782090 2.200000 12.035570
   vertex 13.782090 0.000000 12.035570
  endloop
 endfacet
 facet normal 0.707107 0.000000 0.707107
  outer loop
   vertex 13.782090 0.000000 12.035570
   vertex 13.782090 2.200000 12.035570
   vertex 13.535570 2.200000 12.282090
  endloop
 endfacet
 facet normal 0.707107 0.000000 0.707107
  outer loop
   vertex 13.782090 0.000000 12.035570
   vertex 13.535570 2.200000 12.282090
   vertex 13.535570 0.000000 12.282090
  endloop
 endfacet
 facet normal 0.573579 0.000000 0.819150
  outer loop
   vertex 13.535570 0.000000 12.282090
   vertex 13.535570 2.200000 12.282090
   vertex 13.250000 2.200000 12.482050
  endloop
 endfacet
 facet normal 0.573579 0.000000 0.819150
  outer loop
   vertex 13.535570 0.000000 12.282090
   vertex 13.250000 2.200000 12.482050
   vertex 13.250000 0.000000 12.482050
  endloop
 endfacet
 facet normal 0.422608 0.000000 0.906312
  outer loop
   vertex 13.250000 0.000000 12.482050
   vertex 13.250000 2.200000 12.482050
   vertex 12.934040 2.200000 12.629380
  endloop
 endfacet
 facet normal 0.422608 0.000000 0.906312
  outer loop
   vertex 13.250000 0.000000 12.482050
   vertex 12.934040 2.200000 12.629380
   vertex 12.934040 0.000000 12.629380
  endloop
 endfacet
 facet normal 0.258821 0.000000 0.965925
  outer loop
   vertex 12.934040 0.000000 12.629380
   vertex 12.934040 2.200000 12.629380
   vertex 12.597300 2.200000 12.719610
  endloop
 endfacet
 facet normal 0.258821 0.000000 0.965925
  outer loop
   vertex 12.934040 0.000000 12.629380
   vertex 12.597300 2.200000 12.719610
   vertex 12.597300 0.000000 12.719610
  endloop
 endfacet
 facet normal 0.087170 0.000000 0.996194
  outer loop
   vertex 12.597300 0.000000 12.719610
   vertex 12.597300 2.200000 12.719610
   vertex 12.250000 2.200000 12.750000
  endloop
 endfacet
 facet normal 0.087170 0.000000 0.996194
  outer loop
   vertex 12.597300 0.000000 12.719610
   vertex 12.250000 2.200000 12.750000
   vertex 12.250000 0.000000 12.750000
  endloop
 endfacet
 facet normal -0.996195 0.000000 0.087155
  outer loop
   vertex 0.000000 2.200000 10.750000
   vertex 0.000000 0.000000 10.750000
   vertex 0.030384 0.000000 11.097300
  endloop
 endfacet
 facet normal -0.996195 0.000000 0.087155
  outer loop
   vertex 0.000000 2.200000 10.750000
   vertex 0.030384 0.000000 11.097300
   vertex 0.030384 2.200000 11.097300
  endloop
 endfacet
 facet normal -0.965925 0.000000 0.258822
  outer loop
   vertex 0.030384 2.200000 11.097300
   vertex 0.030384 0.000000 11.097300
   vertex 0.120615 0.000000 11.434040
  endloop
 endfacet
 facet normal -0.965925 0.000000 0.258822
  outer loop
   vertex 0.030384 2.200000 11.097300
   vertex 0.120615 0.000000 11.434040
   vertex 0.120615 2.200000 11.434040
  endloop
 endfacet
 facet normal -0.906308 0.000000 0.422618
  outer loop
   vertex 0.120615 2.200000 11.434040
   vertex 0.120615 0.000000 11.434040
   vertex 0.267949 0.000000 11.750000
  endloop
 endfacet
 facet normal -0.906308 0.000000 0.422618
  outer loop
   vertex 0.120615 2.200000 11.434040
   vertex 0.267949 0.000000 11.750000
   vertex 0.267949 2.200000 11.750000
  endloop
 endfacet
 facet normal -0.819147 0.000000 0.573583
  outer loop
   vertex 0.267949 2.200000 11.750000
   vertex 0.267949 0.000000 11.750000
   vertex 0.467911 0.000000 12.035570
  endloop
 endfacet
 facet normal -0.819147 0.000000 0.573583
  outer loop
   vertex 0.267949 2.200000 11.750000
   vertex 0.467911 0.000000 12.035570
   vertex 0.467911 2.200000 12.035570
  endloop
 endfacet
 facet normal -0.707116 0.000000 0.707098
  outer loop
   vertex 0.467911 2.200000 12.035570
   vertex 0.467911 0.000000 12.035570
   vertex 0.714425 0.000000 12.282090
  endloop
 endfacet
 facet normal -0.707116 0.000000 0.707098
  outer loop
   vertex 0.467911 2.200000 12.035570
   vertex 0.714425 0.000000 12.282090
   vertex 0.714425 2.200000 12.282090
  endloop
 endfacet
 facet normal -0.573572 0.000000 0.819155
  outer loop
   vertex 0.714425 2.200000 12.282090
   vertex 0.714425 0.000000 12.282090
   vertex 1.000000 0.000000 12.482050
  endloop
 endfacet
 facet normal -0.573572 0.000000 0.819155
  outer loop
   vertex 0.714425 2.200000 12.282090
   vertex 1.000000 0.000000 12.482050
   vertex 1.000000 2.200000 12.482050
  endloop
 endfacet
 facet normal -0.422608 0.000000 0.906313
  outer loop
   vertex 1.000000 2.200000 12.482050
   vertex 1.000000 0.000000 12.482050
   vertex 1.315960 0.000000 12.629380
  endloop
 endfacet
 facet normal -0.422608 0.000000 0.906313
  outer loop
   vertex 1.000000 2.200000 12.482050
   vertex 1.315960 0.000000 12.629380
   vertex 1.315960 2.200000 12.629380
  endloop
 endfacet
 facet normal -0.258818 0.000000 0.965926
  outer loop
   vertex 1.315960 2.200000 12.629380
   vertex 1.315960 0.000000 12.629380
   vertex 1.652704 0.000000 12.719610
  endloop
 endfacet
 facet normal -0.258818 0.000000 0.965926
  outer loop
   vertex 1.315960 2.200000 12.629380
   vertex 1.652704 0.000000 12.719610
   vertex 1.652704 2.200000 12.719610
  endloop
 endfacet
 facet normal -0.087171 0.000000 0.996193
  outer loop
   vertex 1.652704 2.200000 12.719610
   vertex 1.652704 0.000000 12.719610
   vertex 2.000000 0.000000 12.750000
  endloop
 endfacet
 facet normal -0.087171 0.000000 0.996193
  outer loop
   vertex 1.652704 2.200000 12.719610
   vertex 2.000000 0.000000 12.750000
   vertex 2.000000 2.200000 12.750000
  endloop
 endfacet
 facet normal -0.087171 0.000000 0.996193
  outer loop
   vertex 2.000000 7.300000 12.750000
   vertex 2.000000 9.500000 12.750000
   vertex 1.652704 9.500000 12.719610
  endloop
 endfacet
 facet normal -0.087171 0.000000 0.996193
  outer loop
   vertex 2.000000 7.300000 12.750000
   vertex 1.652704 9.500000 12.719610
   vertex 1.652704 7.300000 12.719610
  endloop
 endfacet
 facet normal -0.258818 0.000000 0.965926
  outer loop
   vertex 1.652704 7.300000 12.719610
   vertex 1.652704 9.500000 12.719610
   vertex 1.315960 9.500000 12.629380
  endloop
 endfacet
 facet normal -0.258818 0.000000 0.965926
  outer loop
   vertex 1.652704 7.300000 12.719610
   vertex 1.315960 9.500000 12.629380
   vertex 1.315960 7.300000 12.629380
  endloop
 endfacet
 facet normal -0.422608 0.000000 0.906313
  outer loop
   vertex 1.315960 7.300000 12.629380
   vertex 1.315960 9.500000 12.629380
   vertex 1.000000 9.500000 12.482050
  endloop
 endfacet
 facet normal -0.422608 0.000000 0.906313
  outer loop
   vertex 1.315960 7.300000 12.629380
   vertex 1.000000 9.500000 12.482050
   vertex 1.000000 7.300000 12.482050
  endloop
 endfacet
 facet normal -0.573572 0.000000 0.819155
  outer loop
   vertex 1.000000 7.300000 12.482050
   vertex 1.000000 9.500000 12.482050
   vertex 0.714425 9.500000 12.282090
  endloop
 endfacet
 facet normal -0.573572 0.000000 0.819155
  outer loop
   vertex 1.000000 7.300000 12.482050
   vertex 0.714425 9.500000 12.282090
   vertex 0.714425 7.300000 12.282090
  endloop
 endfacet
 facet normal -0.707116 0.000000 0.707098
  outer loop
   vertex 0.714425 7.300000 12.282090
   vertex 0.714425 9.500000 12.282090
   vertex 0.467911 9.500000 12.035570
  endloop
 endfacet
 facet normal -0.707116 0.000000 0.707098
  outer loop
   vertex 0.714425 7.300000 12.282090
   vertex 0.467911 9.500000 12.035570
   vertex 0.467911 7.300000 12.035570
  endloop
 endfacet
 facet normal -0.819147 0.000000 0.573583
  outer loop
   vertex 0.467911 7.300000 12.035570
   vertex 0.467911 9.500000 12.035570
   vertex 0.267949 9.500000 11.750000
  endloop
 endfacet
 facet normal -0.819147 0.000000 0.573583
  outer loop
   vertex 0.467911 7.300000 12.035570
   vertex 0.267949 9.500000 11.750000
   vertex 0.267949 7.300000 11.750000
  endloop
 endfacet
 facet normal -0.906308 0.000000 0.422618
  outer loop
   vertex 0.267949 7.300000 11.750000
   vertex 0.267949 9.500000 11.750000
   vertex 0.120615 9.500000 11.434040
  endloop
 endfacet
 facet normal -0.906308 0.000000 0.422618
  outer loop
   vertex 0.267949 7.300000 11.750000
   vertex 0.120615 9.500000 11.434040
   vertex 0.120615 7.300000 11.434040
  endloop
 endfacet
 facet normal -0.965925 0.000000 0.258822
  outer loop
   vertex 0.120615 7.300000 11.434040
   vertex 0.120615 9.500000 11.434040
   vertex 0.030384 9.500000 11.097300
  endloop
 endfacet
 facet normal -0.965925 0.000000 0.258822
  outer loop
   vertex 0.120615 7.300000 11.434040
   vertex 0.030384 9.500000 11.097300
   vertex 0.030384 7.300000 11.097300
  endloop
 endfacet
 facet normal -0.996195 0.000000 0.087155
  outer loop
   vertex 0.030384 7.300000 11.097300
   vertex 0.030384 9.500000 11.097300
   vertex 0.000000 9.500000 10.750000
  endloop
 endfacet
 facet normal -0.996195 0.000000 0.087155
  outer loop
   vertex 0.030384 7.300000 11.097300
   vertex 0.000000 9.500000 10.750000
   vertex 0.000000 7.300000 10.750000
  endloop
 endfacet
 facet normal 0.087170 0.000000 0.996194
  outer loop
   vertex 12.250000 9.500000 12.750000
   vertex 12.250000 7.300000 12.750000
   vertex 12.597300 7.300000 12.719610
  endloop
 endfacet
 facet normal 0.087170 0.000000 0.996194
  outer loop
   vertex 12.250000 9.500000 12.750000
   vertex 12.597300 7.300000 12.719610
   vertex 12.597300 9.500000 12.719610
  endloop
 endfacet
 facet normal 0.258821 0.000000 0.965925
  outer loop
   vertex 12.597300 9.500000 12.719610
   vertex 12.597300 7.300000 12.719610
   vertex 12.934040 7.300000 12.629380
  endloop
 endfacet
 facet normal 0.258821 0.000000 0.965925
  outer loop
   vertex 12.597300 9.500000 12.719610
   vertex 12.934040 7.300000 12.629380
   vertex 12.934040 9.500000 12.629380
  endloop
 endfacet
 facet normal 0.422608 0.000000 0.906312
  outer loop
   vertex 12.934040 9.500000 12.629380
   vertex 12.934040 7.300000 12.629380
   vertex 13.250000 7.300000 12.482050
  endloop
 endfacet
 facet normal 0.422608 0.000000 0.906312
  outer loop
   vertex 12.934040 9.500000 12.629380
   vertex 13.250000 7.300000 12.482050
   vertex 13.250000 9.500000 12.482050
  endloop
 endfacet
 facet normal 0.573579 0.000000 0.819150
  outer loop
   vertex 13.250000 9.500000 12.482050
   vertex 13.250000 7.300000 12.482050
   vertex 13.535570 7.300000 12.282090
  endloop
 endfacet
 facet normal 0.573579 0.000000 0.819150
  outer loop
   vertex 13.250000 9.500000 12.482050
   vertex 13.535570 7.300000 12.282090
   vertex 13.535570 9.500000 12.282090
  endloop
 endfacet
 facet normal 0.707107 0.000000 0.707107
  outer loop
   vertex 13.535570 9.500000 12.282090
   vertex 13.535570 7.300000 12.282090
   vertex 13.782090 7.300000 12.035570
  endloop
 endfacet
 facet normal 0.707107 0.000000 0.707107
  outer loop
   vertex 13.535570 9.500000 12.282090
   vertex 13.782090 7.300000 12.035570
   vertex 13.782090 9.500000 12.035570
  endloop
 endfacet
 facet normal 0.819150 0.000000 0.573579
  outer loop
   vertex 13.782090 9.500000 12.035570
   vertex 13.782090 7.300000 12.035570
   vertex 13.982050 7.300000 11.750000
  endloop
 endfacet
 facet normal 0.819150 0.000000 0.573579
  outer loop
   vertex 13.782090 9.500000 12.035570
   vertex 13.982050 7.300000 11.750000
   vertex 13.982050 9.500000 11.750000
  endloop
 endfacet
 facet normal 0.906312 0.000000 0.422608
  outer loop
   vertex 13.982050 9.500000 11.750000
   vertex 13.982050 7.300000 11.750000
   vertex 14.129380 7.300000 11.434040
  endloop
 endfacet
 facet normal 0.906312 0.000000 0.422608
  outer loop
   vertex 13.982050 9.500000 11.750000
   vertex 14.129380 7.300000 11.434040
   vertex 14.129380 9.500000 11.434040
  endloop
 endfacet
 facet normal 0.965919 0.000000 0.258846
  outer loop
   vertex 14.129380 9.500000 11.434040
   vertex 14.129380 7.300000 11.434040
   vertex 14.219620 7.300000 11.097300
  endloop
 endfacet
 facet normal 0.965919 0.000000 0.258846
  outer loop
   vertex 14.129380 9.500000 11.434040
   vertex 14.219620 7.300000 11.097300
   vertex 14.219620 9.500000 11.097300
  endloop
 endfacet
 facet normal 0.996196 0.000000 0.087143
  outer loop
   vertex 14.219620 9.500000 11.097300
   vertex 14.219620 7.300000 11.097300
   vertex 14.250000 7.300000 10.750000
  endloop
 endfacet
 facet normal 0.996196 0.000000 0.087143
  outer loop
   vertex 14.219620 9.500000 11.097300
   vertex 14.250000 7.300000 10.750000
   vertex 14.250000 9.500000 10.750000
  endloop
 endfacet
endsolid VR - Fully printed - part 3b - VR - Fully printed - part 3b (repaired)
