G04 EAGLE Gerber RS-274X export*
G75*
%MOMM*%
%FSLAX34Y34*%
%LPD*%
%IN*%
%IPPOS*%
%AMOC8*
5,1,8,0,0,1.08239X$1,22.5*%
G01*
%ADD10C,0.254000*%


D10*
X0Y177800D02*
X677Y162304D01*
X2701Y146925D01*
X6058Y131782D01*
X10723Y116989D01*
X16658Y102658D01*
X23821Y88900D01*
X32155Y75818D01*
X41597Y63512D01*
X52076Y52076D01*
X63512Y41597D01*
X75818Y32155D01*
X88900Y23821D01*
X102658Y16658D01*
X116989Y10723D01*
X131782Y6058D01*
X146925Y2701D01*
X162304Y677D01*
X177800Y0D01*
X830900Y0D01*
X832643Y76D01*
X834373Y304D01*
X836076Y681D01*
X837740Y1206D01*
X839352Y1874D01*
X840900Y2680D01*
X842372Y3617D01*
X843756Y4679D01*
X845042Y5858D01*
X846221Y7144D01*
X847283Y8528D01*
X848221Y10000D01*
X849026Y11548D01*
X849694Y13160D01*
X850219Y14824D01*
X850596Y16527D01*
X850824Y18257D01*
X850900Y20000D01*
X850900Y386400D01*
X850824Y388143D01*
X850596Y389873D01*
X850219Y391576D01*
X849694Y393240D01*
X849026Y394852D01*
X848221Y396400D01*
X847283Y397872D01*
X846221Y399256D01*
X845042Y400542D01*
X843756Y401721D01*
X842372Y402783D01*
X840900Y403721D01*
X839352Y404526D01*
X837740Y405194D01*
X836076Y405719D01*
X834373Y406096D01*
X832643Y406324D01*
X830900Y406400D01*
X100000Y406400D01*
X91284Y406019D01*
X82635Y404881D01*
X74118Y402993D01*
X65798Y400369D01*
X57738Y397031D01*
X50000Y393003D01*
X42642Y388315D01*
X35721Y383004D01*
X29289Y377111D01*
X23396Y370679D01*
X18085Y363758D01*
X13397Y356400D01*
X9369Y348662D01*
X6031Y340602D01*
X3407Y332282D01*
X1519Y323765D01*
X381Y315116D01*
X0Y306400D01*
X0Y177800D01*
X62421Y356842D02*
X62344Y355774D01*
X62192Y354713D01*
X61964Y353666D01*
X61662Y352638D01*
X61288Y351635D01*
X60843Y350660D01*
X60329Y349720D01*
X59750Y348818D01*
X59108Y347961D01*
X58406Y347151D01*
X57649Y346394D01*
X56839Y345692D01*
X55981Y345050D01*
X55080Y344471D01*
X54140Y343957D01*
X53165Y343512D01*
X52161Y343138D01*
X51133Y342836D01*
X50087Y342608D01*
X49026Y342456D01*
X47957Y342379D01*
X46886Y342379D01*
X45817Y342456D01*
X44757Y342608D01*
X43710Y342836D01*
X42682Y343138D01*
X41678Y343512D01*
X40704Y343957D01*
X39764Y344471D01*
X38862Y345050D01*
X38005Y345692D01*
X37195Y346394D01*
X36437Y347151D01*
X35736Y347961D01*
X35094Y348818D01*
X34514Y349720D01*
X34001Y350660D01*
X33556Y351635D01*
X33182Y352638D01*
X32880Y353666D01*
X32652Y354713D01*
X32500Y355774D01*
X32423Y356842D01*
X32423Y357914D01*
X32500Y358982D01*
X32652Y360043D01*
X32880Y361090D01*
X33182Y362118D01*
X33556Y363121D01*
X34001Y364096D01*
X34514Y365036D01*
X35094Y365938D01*
X35736Y366795D01*
X36437Y367605D01*
X37195Y368362D01*
X38005Y369064D01*
X38862Y369706D01*
X39764Y370285D01*
X40704Y370799D01*
X41678Y371244D01*
X42682Y371618D01*
X43710Y371920D01*
X44757Y372148D01*
X45817Y372300D01*
X46886Y372377D01*
X47957Y372377D01*
X49026Y372300D01*
X50087Y372148D01*
X51133Y371920D01*
X52161Y371618D01*
X53165Y371244D01*
X54140Y370799D01*
X55080Y370285D01*
X55981Y369706D01*
X56839Y369064D01*
X57649Y368362D01*
X58406Y367605D01*
X59108Y366795D01*
X59750Y365938D01*
X60329Y365036D01*
X60843Y364096D01*
X61288Y363121D01*
X61662Y362118D01*
X61964Y361090D01*
X62192Y360043D01*
X62344Y358982D01*
X62421Y357914D01*
X62421Y356842D01*
X842277Y23848D02*
X842200Y22780D01*
X842048Y21719D01*
X841820Y20672D01*
X841518Y19644D01*
X841144Y18641D01*
X840699Y17666D01*
X840185Y16726D01*
X839606Y15824D01*
X838964Y14967D01*
X838262Y14157D01*
X837505Y13400D01*
X836695Y12698D01*
X835838Y12056D01*
X834936Y11477D01*
X833996Y10963D01*
X833021Y10518D01*
X832018Y10144D01*
X830990Y9842D01*
X829943Y9614D01*
X828882Y9462D01*
X827814Y9385D01*
X826742Y9385D01*
X825674Y9462D01*
X824613Y9614D01*
X823566Y9842D01*
X822538Y10144D01*
X821535Y10518D01*
X820560Y10963D01*
X819620Y11477D01*
X818718Y12056D01*
X817861Y12698D01*
X817051Y13400D01*
X816294Y14157D01*
X815592Y14967D01*
X814950Y15824D01*
X814371Y16726D01*
X813857Y17666D01*
X813412Y18641D01*
X813038Y19644D01*
X812736Y20672D01*
X812508Y21719D01*
X812356Y22780D01*
X812279Y23848D01*
X812279Y24920D01*
X812356Y25988D01*
X812508Y27049D01*
X812736Y28096D01*
X813038Y29124D01*
X813412Y30127D01*
X813857Y31102D01*
X814371Y32042D01*
X814950Y32944D01*
X815592Y33801D01*
X816294Y34611D01*
X817051Y35368D01*
X817861Y36070D01*
X818718Y36712D01*
X819620Y37291D01*
X820560Y37805D01*
X821535Y38250D01*
X822538Y38624D01*
X823566Y38926D01*
X824613Y39154D01*
X825674Y39306D01*
X826742Y39383D01*
X827814Y39383D01*
X828882Y39306D01*
X829943Y39154D01*
X830990Y38926D01*
X832018Y38624D01*
X833021Y38250D01*
X833996Y37805D01*
X834936Y37291D01*
X835838Y36712D01*
X836695Y36070D01*
X837505Y35368D01*
X838262Y34611D01*
X838964Y33801D01*
X839606Y32944D01*
X840185Y32042D01*
X840699Y31102D01*
X841144Y30127D01*
X841518Y29124D01*
X841820Y28096D01*
X842048Y27049D01*
X842200Y25988D01*
X842277Y24920D01*
X842277Y23848D01*
X131813Y39469D02*
X131737Y38401D01*
X131584Y37340D01*
X131357Y36293D01*
X131055Y35265D01*
X130680Y34262D01*
X130235Y33287D01*
X129722Y32347D01*
X129143Y31445D01*
X128501Y30588D01*
X127799Y29778D01*
X127042Y29021D01*
X126232Y28319D01*
X125374Y27677D01*
X124473Y27098D01*
X123533Y26584D01*
X122558Y26139D01*
X121554Y25765D01*
X120526Y25463D01*
X119479Y25235D01*
X118419Y25083D01*
X117350Y25006D01*
X116279Y25006D01*
X115210Y25083D01*
X114150Y25235D01*
X113103Y25463D01*
X112075Y25765D01*
X111071Y26139D01*
X110097Y26584D01*
X109156Y27098D01*
X108255Y27677D01*
X107397Y28319D01*
X106588Y29021D01*
X105830Y29778D01*
X105129Y30588D01*
X104487Y31445D01*
X103907Y32347D01*
X103394Y33287D01*
X102949Y34262D01*
X102574Y35265D01*
X102273Y36293D01*
X102045Y37340D01*
X101892Y38401D01*
X101816Y39469D01*
X101816Y40541D01*
X101892Y41609D01*
X102045Y42670D01*
X102273Y43717D01*
X102574Y44745D01*
X102949Y45748D01*
X103394Y46723D01*
X103907Y47663D01*
X104487Y48565D01*
X105129Y49422D01*
X105830Y50232D01*
X106588Y50990D01*
X107397Y51691D01*
X108255Y52333D01*
X109156Y52912D01*
X110097Y53426D01*
X111071Y53871D01*
X112075Y54245D01*
X113103Y54547D01*
X114150Y54775D01*
X115210Y54927D01*
X116279Y55004D01*
X117350Y55004D01*
X118419Y54927D01*
X119479Y54775D01*
X120526Y54547D01*
X121554Y54245D01*
X122558Y53871D01*
X123533Y53426D01*
X124473Y52912D01*
X125374Y52333D01*
X126232Y51691D01*
X127042Y50990D01*
X127799Y50232D01*
X128501Y49422D01*
X129143Y48565D01*
X129722Y47663D01*
X130235Y46723D01*
X130680Y45748D01*
X131055Y44745D01*
X131357Y43717D01*
X131584Y42670D01*
X131737Y41609D01*
X131813Y40541D01*
X131813Y39469D01*
X46265Y282119D02*
X46192Y281567D01*
X46048Y281029D01*
X45835Y280514D01*
X45557Y280032D01*
X45217Y279590D01*
X44823Y279196D01*
X44381Y278857D01*
X43899Y278578D01*
X43384Y278365D01*
X42846Y278221D01*
X42294Y278148D01*
X41737Y278148D01*
X41184Y278221D01*
X40646Y278365D01*
X40131Y278578D01*
X39649Y278857D01*
X39207Y279196D01*
X38813Y279590D01*
X38474Y280032D01*
X38195Y280514D01*
X37982Y281029D01*
X37838Y281567D01*
X37765Y282119D01*
X37765Y282677D01*
X37838Y283229D01*
X37982Y283767D01*
X38195Y284282D01*
X38474Y284764D01*
X38813Y285206D01*
X39207Y285600D01*
X39649Y285939D01*
X40131Y286218D01*
X40646Y286431D01*
X41184Y286575D01*
X41737Y286648D01*
X42294Y286648D01*
X42846Y286575D01*
X43384Y286431D01*
X43899Y286218D01*
X44381Y285939D01*
X44823Y285600D01*
X45217Y285206D01*
X45557Y284764D01*
X45835Y284282D01*
X46048Y283767D01*
X46192Y283229D01*
X46265Y282677D01*
X46265Y282119D01*
X46265Y244119D02*
X46192Y243567D01*
X46048Y243029D01*
X45835Y242514D01*
X45557Y242032D01*
X45217Y241590D01*
X44823Y241196D01*
X44381Y240857D01*
X43899Y240578D01*
X43384Y240365D01*
X42846Y240221D01*
X42294Y240148D01*
X41737Y240148D01*
X41184Y240221D01*
X40646Y240365D01*
X40131Y240578D01*
X39649Y240857D01*
X39207Y241196D01*
X38813Y241590D01*
X38474Y242032D01*
X38195Y242514D01*
X37982Y243029D01*
X37838Y243567D01*
X37765Y244119D01*
X37765Y244677D01*
X37838Y245229D01*
X37982Y245767D01*
X38195Y246282D01*
X38474Y246764D01*
X38813Y247206D01*
X39207Y247600D01*
X39649Y247939D01*
X40131Y248218D01*
X40646Y248431D01*
X41184Y248575D01*
X41737Y248648D01*
X42294Y248648D01*
X42846Y248575D01*
X43384Y248431D01*
X43899Y248218D01*
X44381Y247939D01*
X44823Y247600D01*
X45217Y247206D01*
X45557Y246764D01*
X45835Y246282D01*
X46048Y245767D01*
X46192Y245229D01*
X46265Y244677D01*
X46265Y244119D01*
M02*
