G04 EAGLE Gerber RS-274X export*
G75*
%MOMM*%
%FSLAX34Y34*%
%LPD*%
%INSolderpaste Top*%
%IPPOS*%
%AMOC8*
5,1,8,0,0,1.08239X$1,22.5*%
G01*
%ADD10R,1.500000X1.300000*%
%ADD11R,0.900000X0.700000*%
%ADD12R,0.700000X0.900000*%
%ADD13R,0.250000X0.350000*%
%ADD14R,1.300000X1.500000*%
%ADD15R,1.800000X1.600000*%
%ADD16R,1.571800X1.511800*%
%ADD17R,1.500000X4.600000*%
%ADD18R,1.450000X0.400000*%
%ADD19R,1.500000X1.800000*%
%ADD20R,0.700000X1.500000*%
%ADD21R,1.000000X1.000000*%
%ADD22R,1.000000X1.200000*%
%ADD23R,0.700000X0.600000*%
%ADD24R,0.600000X0.700000*%
%ADD25R,1.100000X1.000000*%
%ADD26R,1.000000X1.100000*%
%ADD27R,1.000000X0.950000*%
%ADD28R,0.300000X1.200000*%
%ADD29R,1.200000X0.300000*%
%ADD30R,1.600200X0.838200*%
%ADD31R,1.600200X3.098800*%
%ADD32R,0.482600X0.482600*%
%ADD33C,0.254000*%
%ADD34R,1.800000X1.000000*%
%ADD35R,1.200000X1.100000*%
%ADD36R,1.803000X1.600000*%


D10*
X593090Y121768D03*
X593090Y102768D03*
X473202Y232054D03*
X473202Y251054D03*
D11*
X404114Y49680D03*
X404114Y36680D03*
X171196Y67206D03*
X171196Y54206D03*
D10*
X197866Y41250D03*
X197866Y22250D03*
D11*
X233680Y50696D03*
X233680Y37696D03*
D12*
X196492Y188722D03*
X183492Y188722D03*
D11*
X147574Y363070D03*
X147574Y376070D03*
D10*
X121412Y336448D03*
X121412Y355448D03*
D13*
X189698Y249936D03*
X184698Y249936D03*
D14*
X174092Y131572D03*
X155092Y131572D03*
D15*
X497840Y121442D03*
X497840Y93442D03*
D12*
X468526Y164592D03*
X455526Y164592D03*
D11*
X317246Y345336D03*
X317246Y332336D03*
X261874Y321714D03*
X261874Y308714D03*
D10*
X278892Y360020D03*
X278892Y341020D03*
D11*
X388620Y36680D03*
X388620Y49680D03*
D12*
X153012Y148844D03*
X166012Y148844D03*
X182984Y227838D03*
X195984Y227838D03*
D11*
X401574Y321460D03*
X401574Y308460D03*
D12*
X455526Y178562D03*
X468526Y178562D03*
D11*
X200660Y134008D03*
X200660Y121008D03*
D15*
X529590Y121442D03*
X529590Y93442D03*
D11*
X357632Y308460D03*
X357632Y321460D03*
D12*
X248054Y354838D03*
X235054Y354838D03*
X177396Y322834D03*
X190396Y322834D03*
X128120Y194310D03*
X141120Y194310D03*
X128120Y219456D03*
X141120Y219456D03*
D14*
X551790Y360172D03*
X532790Y360172D03*
D11*
X510032Y363070D03*
X510032Y376070D03*
X792226Y289156D03*
X792226Y302156D03*
X251206Y50696D03*
X251206Y37696D03*
X285750Y31392D03*
X285750Y18392D03*
D15*
X561340Y121442D03*
X561340Y93442D03*
D12*
X708302Y119634D03*
X695302Y119634D03*
D11*
X742950Y63650D03*
X742950Y50650D03*
X748030Y147424D03*
X748030Y160424D03*
X767588Y143614D03*
X767588Y156614D03*
D15*
X499872Y232126D03*
X499872Y260126D03*
D11*
X621030Y124102D03*
X621030Y111102D03*
X94488Y329542D03*
X94488Y342542D03*
D12*
X204620Y367284D03*
X191620Y367284D03*
D14*
X177140Y168656D03*
X158140Y168656D03*
D16*
X705104Y315140D03*
X705104Y274140D03*
D17*
X81164Y98044D03*
X130164Y98044D03*
D18*
X47265Y263398D03*
X47265Y269898D03*
X47265Y276398D03*
X47265Y256898D03*
X47265Y250398D03*
D19*
X20015Y300238D03*
D20*
X20015Y263398D03*
D19*
X20015Y226558D03*
D21*
X191422Y65786D03*
X211422Y65786D03*
X152654Y341724D03*
X152654Y321724D03*
D22*
X268224Y50624D03*
X268224Y28624D03*
D21*
X312514Y310134D03*
X292514Y310134D03*
D23*
X218440Y46148D03*
X218440Y36148D03*
D14*
X194192Y385318D03*
X211192Y385318D03*
X795172Y55728D03*
X814172Y55728D03*
X795172Y76708D03*
X814172Y76708D03*
D24*
X135810Y317246D03*
X125810Y317246D03*
D23*
X274828Y315642D03*
X274828Y305642D03*
D25*
X436880Y378324D03*
X436880Y361324D03*
X459740Y378324D03*
X459740Y361324D03*
X482600Y377816D03*
X482600Y360816D03*
D26*
X451222Y294386D03*
X434222Y294386D03*
D23*
X217678Y278718D03*
X217678Y288718D03*
X146050Y261540D03*
X146050Y251540D03*
D16*
X757428Y314886D03*
X757428Y273886D03*
D27*
X78740Y184024D03*
X78740Y200024D03*
X89408Y242444D03*
X89408Y258444D03*
X89408Y290702D03*
X89408Y274702D03*
D28*
X413128Y288340D03*
X408128Y288340D03*
X403128Y288340D03*
X398128Y288340D03*
X393128Y288340D03*
X388128Y288340D03*
X383128Y288340D03*
X378128Y288340D03*
X373128Y288340D03*
X368128Y288340D03*
X363128Y288340D03*
X358128Y288340D03*
X353128Y288340D03*
X348128Y288340D03*
X343128Y288340D03*
X338128Y288340D03*
X333128Y288340D03*
X328128Y288340D03*
X323128Y288340D03*
X318128Y288340D03*
X313128Y288340D03*
X308128Y288340D03*
X303128Y288340D03*
X298128Y288340D03*
X293128Y288340D03*
X288128Y288340D03*
X283128Y288340D03*
X278128Y288340D03*
X273128Y288340D03*
X268128Y288340D03*
X263128Y288340D03*
X258128Y288340D03*
X253128Y288340D03*
X248128Y288340D03*
X243128Y288340D03*
X238128Y288340D03*
D29*
X217628Y267840D03*
X217628Y262840D03*
X217628Y257840D03*
X217628Y252840D03*
X217628Y247840D03*
X217628Y242840D03*
X217628Y237840D03*
X217628Y232840D03*
X217628Y227840D03*
X217628Y222840D03*
X217628Y217840D03*
X217628Y212840D03*
X217628Y207840D03*
X217628Y202840D03*
X217628Y197840D03*
X217628Y192840D03*
X217628Y187840D03*
X217628Y182840D03*
X217628Y177840D03*
X217628Y172840D03*
X217628Y167840D03*
X217628Y162840D03*
X217628Y157840D03*
X217628Y152840D03*
X217628Y147840D03*
X217628Y142840D03*
X217628Y137840D03*
X217628Y132840D03*
X217628Y127840D03*
X217628Y122840D03*
X217628Y117840D03*
X217628Y112840D03*
X217628Y107840D03*
X217628Y102840D03*
X217628Y97840D03*
X217628Y92840D03*
D28*
X238128Y72340D03*
X243128Y72340D03*
X248128Y72340D03*
X253128Y72340D03*
X258128Y72340D03*
X263128Y72340D03*
X268128Y72340D03*
X273128Y72340D03*
X278128Y72340D03*
X283128Y72340D03*
X288128Y72340D03*
X293128Y72340D03*
X298128Y72340D03*
X303128Y72340D03*
X308128Y72340D03*
X313128Y72340D03*
X318128Y72340D03*
X323128Y72340D03*
X328128Y72340D03*
X333128Y72340D03*
X338128Y72340D03*
X343128Y72340D03*
X348128Y72340D03*
X353128Y72340D03*
X358128Y72340D03*
X363128Y72340D03*
X368128Y72340D03*
X373128Y72340D03*
X378128Y72340D03*
X383128Y72340D03*
X388128Y72340D03*
X393128Y72340D03*
X398128Y72340D03*
X403128Y72340D03*
X408128Y72340D03*
X413128Y72340D03*
D29*
X433628Y92840D03*
X433628Y97840D03*
X433628Y102840D03*
X433628Y107840D03*
X433628Y112840D03*
X433628Y117840D03*
X433628Y122840D03*
X433628Y127840D03*
X433628Y132840D03*
X433628Y137840D03*
X433628Y142840D03*
X433628Y147840D03*
X433628Y152840D03*
X433628Y157840D03*
X433628Y162840D03*
X433628Y167840D03*
X433628Y172840D03*
X433628Y177840D03*
X433628Y182840D03*
X433628Y187840D03*
X433628Y192840D03*
X433628Y197840D03*
X433628Y202840D03*
X433628Y207840D03*
X433628Y212840D03*
X433628Y217840D03*
X433628Y222840D03*
X433628Y227840D03*
X433628Y232840D03*
X433628Y237840D03*
X433628Y242840D03*
X433628Y247840D03*
X433628Y252840D03*
X433628Y257840D03*
X433628Y262840D03*
X433628Y267840D03*
D30*
X626364Y158750D03*
X626364Y181864D03*
X626364Y204978D03*
D31*
X562356Y181864D03*
D32*
X756793Y97663D03*
X744093Y97663D03*
X756666Y109728D03*
X744474Y109728D03*
D33*
X767676Y90811D02*
X775296Y90811D01*
X775296Y95882D02*
X767676Y95882D01*
X767676Y100903D02*
X775296Y100903D01*
X775296Y106253D02*
X767676Y106253D01*
X767676Y111299D02*
X775296Y111299D01*
X775296Y116345D02*
X767676Y116345D01*
X763491Y120784D02*
X763491Y128404D01*
X758445Y128404D02*
X758445Y120784D01*
X753399Y120784D02*
X753399Y128404D01*
X748049Y128404D02*
X748049Y120784D01*
X743028Y120784D02*
X743028Y128404D01*
X737957Y128404D02*
X737957Y120784D01*
X733772Y116345D02*
X726152Y116345D01*
X726152Y111299D02*
X733772Y111299D01*
X733772Y106253D02*
X726152Y106253D01*
X726152Y100903D02*
X733772Y100903D01*
X733772Y95882D02*
X726152Y95882D01*
X726152Y90811D02*
X733772Y90811D01*
X737957Y86372D02*
X737957Y78752D01*
X743028Y78752D02*
X743028Y86372D01*
X748049Y86372D02*
X748049Y78752D01*
X753399Y78752D02*
X753399Y86372D01*
X758445Y86372D02*
X758445Y78752D01*
X763491Y78752D02*
X763491Y86372D01*
D34*
X162814Y219256D03*
X162814Y194256D03*
D35*
X209738Y323228D03*
X233238Y323228D03*
X233238Y340728D03*
X209738Y340728D03*
D36*
X41910Y199386D03*
X41910Y170946D03*
D11*
X16256Y201826D03*
X16256Y188826D03*
M02*
