M48
;GenerationSoftware,Autodesk,EAGLE,9.6.0*%
;CreationDate,2020-04-15T12:00:14Z*%
FMAT,2
ICI,OFF
METRIC,TZ,000.000
T4C0.406
T3C0.610
T2C0.850
T1C3.000
%
G90
M71
T1
X11681Y4001
X82728Y2438
X4742Y35738
T2
X4202Y24440
X4202Y28240
T3
X41224Y17297
X24206Y16256
X23597Y14275
X34366Y17272
X30836Y16739
X36347Y26619
X45466Y23139
X6629Y12319
X23393Y8799
X15316Y6172
X30063Y3012
X6579Y31699
X5131Y22708
X33147Y33198
X34366Y22047
X70815Y10160
X81382Y11608
X16535Y10389
X46558Y12243
X24213Y22777
X19888Y17145
T4
X37205Y14066
X37973Y30505
X19355Y14935
X38506Y8698
X41631Y8890
X16358Y36271
X10846Y20980
X39726Y35128
X27853Y25923
X40498Y34356
X27081Y25151
X41270Y33584
X35662Y24003
X36170Y20904
X39116Y19761
X81001Y30226
X19660Y25197
X15265Y30378
X9830Y14503
X46761Y28677
X19888Y26264
X17374Y29845
X8712Y21234
X30023Y37363
X42926Y31521
X47244Y20549
X22936Y25349
X21971Y36551
X33116Y1900
X76972Y5654
X33889Y2672
X75844Y6325
X44856Y20345
X68072Y30810
X36474Y12421
X75794Y19761
X78308Y12700
X17780Y25171
X28626Y26695
M30